HIERARCHY
ROOT Hips
{
	OFFSET 0.000000 0.000000 0.000000
	CHANNELS 6 Xposition Yposition Zposition Zrotation Yrotation Xrotation 
	JOINT Spine1
	{
		OFFSET -0.013727 5.003762 -0.053727
		CHANNELS 3 Zrotation Yrotation Xrotation
		JOINT Spine2
		{
			OFFSET -0.000000 7.125302 -0.029825
			CHANNELS 3 Zrotation Yrotation Xrotation
			JOINT Chest
			{
				OFFSET -0.000001 7.550063 -0.815971
				CHANNELS 3 Zrotation Yrotation Xrotation
				JOINT Neck1
				{
					OFFSET -0.181676 26.311296 -0.553348
					CHANNELS 3 Zrotation Yrotation Xrotation
					JOINT Neck2
					{
						OFFSET -0.000003 7.709399 2.302586
						CHANNELS 3 Zrotation Yrotation Xrotation
						JOINT Head
						{
							OFFSET -0.000005 6.128914 1.953708
							CHANNELS 3 Zrotation Yrotation Xrotation
							JOINT HeadEnd
							{
								OFFSET 0.003598 16.065401 -1.835379
								CHANNELS 3 Zrotation Yrotation Xrotation
								End Site
								{
									OFFSET 0.000000 0.000000 0.000000
								}
							}
							JOINT Jaw
							{
								OFFSET 0.002637 0.475592 3.094940
								CHANNELS 3 Zrotation Yrotation Xrotation
								End Site
								{
									OFFSET 0.000000 0.000000 0.000000
								}
							}
							JOINT LeftEye
							{
								OFFSET 3.206381 5.380207 7.586883
								CHANNELS 3 Zrotation Yrotation Xrotation
								End Site
								{
									OFFSET 0.000000 0.000000 0.000000
								}
							}
							JOINT RightEye
							{
								OFFSET -3.222440 5.361866 7.558233
								CHANNELS 3 Zrotation Yrotation Xrotation
								End Site
								{
									OFFSET 0.000000 0.000000 0.000000
								}
							}
						}
					}
				}
				JOINT LeftShoulder
				{
					OFFSET 1.621652 23.237165 5.113413
					CHANNELS 3 Zrotation Yrotation Xrotation
					JOINT LeftArm
					{
						OFFSET 14.919845 -0.000000 -5.502326
						CHANNELS 3 Zrotation Yrotation Xrotation
						JOINT LeftForeArm
						{
							OFFSET 28.739309 0.000004 -0.002589
							CHANNELS 3 Zrotation Yrotation Xrotation
							JOINT LeftHand
							{
								OFFSET 27.093979 -0.000003 0.002610
								CHANNELS 3 Zrotation Yrotation Xrotation
								JOINT LeftHandThumb1
								{
									OFFSET 2.276480 -1.392046 3.191413
									CHANNELS 3 Zrotation Yrotation Xrotation
									JOINT LeftHandThumb2
									{
										OFFSET 4.012840 -1.828126 1.641655
										CHANNELS 3 Zrotation Yrotation Xrotation
										JOINT LeftHandThumb3
										{
											OFFSET 2.798518 0.000001 -0.000003
											CHANNELS 3 Zrotation Yrotation Xrotation
											JOINT LeftHandThumbEnd
											{
												OFFSET 3.180790 -0.000003 0.000002
												CHANNELS 3 Zrotation Yrotation Xrotation
												End Site
												{
													OFFSET 0.000000 0.000000 0.000000
												}
											}
										}
									}
								}
								JOINT LeftHandIndex1
								{
									OFFSET 3.247553 -0.531998 2.296170
									CHANNELS 3 Zrotation Yrotation Xrotation
									JOINT LeftHandIndex2
									{
										OFFSET 6.364578 0.012062 0.178599
										CHANNELS 3 Zrotation Yrotation Xrotation
										JOINT LeftHandIndex3
										{
											OFFSET 3.662366 0.000001 0.000000
											CHANNELS 3 Zrotation Yrotation Xrotation
											JOINT LeftHandIndex4
											{
												OFFSET 2.329242 0.000002 0.000003
												CHANNELS 3 Zrotation Yrotation Xrotation
												JOINT LeftHandIndexEnd
												{
													OFFSET 2.759619 -0.180538 -0.113024
													CHANNELS 3 Zrotation Yrotation Xrotation
													End Site
													{
														OFFSET 0.000000 0.000000 0.000000
													}
												}
											}
										}
									}
								}
								JOINT LeftHandMiddle1
								{
									OFFSET 3.163499 0.240982 1.000332
									CHANNELS 3 Zrotation Yrotation Xrotation
									JOINT LeftHandMiddle2
									{
										OFFSET 6.190778 -0.259277 -1.002549
										CHANNELS 3 Zrotation Yrotation Xrotation
										JOINT LeftHandMiddle3
										{
											OFFSET 4.356523 -0.000006 0.000001
											CHANNELS 3 Zrotation Yrotation Xrotation
											JOINT LeftHandMiddle4
											{
												OFFSET 2.996875 -0.000006 0.000000
												CHANNELS 3 Zrotation Yrotation Xrotation
												JOINT LeftHandMiddleEnd
												{
													OFFSET 2.304294 -0.294571 -0.031740
													CHANNELS 3 Zrotation Yrotation Xrotation
													End Site
													{
														OFFSET 0.000000 0.000000 0.000000
													}
												}
											}
										}
									}
								}
								JOINT LeftHandRing1
								{
									OFFSET 2.882641 -0.053650 -0.322543
									CHANNELS 3 Zrotation Yrotation Xrotation
									JOINT LeftHandRing2
									{
										OFFSET 5.854542 -0.486203 -1.373841
										CHANNELS 3 Zrotation Yrotation Xrotation
										JOINT LeftHandRing3
										{
											OFFSET 4.350580 0.000000 0.000003
											CHANNELS 3 Zrotation Yrotation Xrotation
											JOINT LeftHandRing4
											{
												OFFSET 2.651324 0.000007 0.000003
												CHANNELS 3 Zrotation Yrotation Xrotation
												JOINT LeftHandRingEnd
												{
													OFFSET 1.936111 0.077685 -0.000069
													CHANNELS 3 Zrotation Yrotation Xrotation
													End Site
													{
														OFFSET 0.000000 0.000000 0.000000
													}
												}
											}
										}
									}
								}
								JOINT LeftHandPinky1
								{
									OFFSET 2.865498 -0.310004 -1.600378
									CHANNELS 3 Zrotation Yrotation Xrotation
									JOINT LeftHandPinky2
									{
										OFFSET 5.087854 -1.331141 -1.771231
										CHANNELS 3 Zrotation Yrotation Xrotation
										JOINT LeftHandPinky3
										{
											OFFSET 3.070975 0.000003 0.000001
											CHANNELS 3 Zrotation Yrotation Xrotation
											JOINT LeftHandPinky4
											{
												OFFSET 1.549668 0.000000 0.000001
												CHANNELS 3 Zrotation Yrotation Xrotation
												JOINT LeftHandPinkyEnd
												{
													OFFSET 1.944895 -0.157801 0.057219
													CHANNELS 3 Zrotation Yrotation Xrotation
													End Site
													{
														OFFSET 0.000000 0.000000 0.000000
													}
												}
											}
										}
									}
								}
							}
						}
					}
				}
				JOINT RightShoulder
				{
					OFFSET -1.380118 23.180307 5.214157
					CHANNELS 3 Zrotation Yrotation Xrotation
					JOINT RightArm
					{
						OFFSET -15.037197 0.000013 -5.545604
						CHANNELS 3 Zrotation Yrotation Xrotation
						JOINT RightForeArm
						{
							OFFSET -28.736639 0.000002 -0.002597
							CHANNELS 3 Zrotation Yrotation Xrotation
							JOINT RightHand
							{
								OFFSET -27.133619 -0.000000 0.002613
								CHANNELS 3 Zrotation Yrotation Xrotation
								JOINT RightHandThumb1
								{
									OFFSET -2.274036 -1.383990 3.163128
									CHANNELS 3 Zrotation Yrotation Xrotation
									JOINT RightHandThumb2
									{
										OFFSET -4.011429 -1.827468 1.640915
										CHANNELS 3 Zrotation Yrotation Xrotation
										JOINT RightHandThumb3
										{
											OFFSET -2.794935 -0.000003 -0.000003
											CHANNELS 3 Zrotation Yrotation Xrotation
											JOINT RightHandThumbEnd
											{
												OFFSET -3.183855 0.000003 -0.000001
												CHANNELS 3 Zrotation Yrotation Xrotation
												End Site
												{
													OFFSET 0.000000 0.000000 0.000000
												}
											}
										}
									}
								}
								JOINT RightHandIndex1
								{
									OFFSET -3.253270 -0.520059 2.282867
									CHANNELS 3 Zrotation Yrotation Xrotation
									JOINT RightHandIndex2
									{
										OFFSET -6.341917 0.012473 0.178265
										CHANNELS 3 Zrotation Yrotation Xrotation
										JOINT RightHandIndex3
										{
											OFFSET -3.654875 -0.000008 -0.000000
											CHANNELS 3 Zrotation Yrotation Xrotation
											JOINT RightHandIndex4
											{
												OFFSET -2.327586 -0.000000 -0.000000
												CHANNELS 3 Zrotation Yrotation Xrotation
												JOINT RightHandIndexEnd
												{
													OFFSET -2.761789 -0.180657 -0.113079
													CHANNELS 3 Zrotation Yrotation Xrotation
													End Site
													{
														OFFSET 0.000000 0.000000 0.000000
													}
												}
											}
										}
									}
								}
								JOINT RightHandMiddle1
								{
									OFFSET -3.168107 0.246594 1.001031
									CHANNELS 3 Zrotation Yrotation Xrotation
									JOINT RightHandMiddle2
									{
										OFFSET -6.180829 -0.258836 -1.000896
										CHANNELS 3 Zrotation Yrotation Xrotation
										JOINT RightHandMiddle3
										{
											OFFSET -4.348905 0.000000 -0.000000
											CHANNELS 3 Zrotation Yrotation Xrotation
											JOINT RightHandMiddle4
											{
												OFFSET -3.000243 -0.000004 -0.000002
												CHANNELS 3 Zrotation Yrotation Xrotation
												JOINT RightHandMiddleEnd
												{
													OFFSET -2.302517 -0.294372 -0.031707
													CHANNELS 3 Zrotation Yrotation Xrotation
													End Site
													{
														OFFSET 0.000000 0.000000 0.000000
													}
												}
											}
										}
									}
								}
								JOINT RightHandRing1
								{
									OFFSET -2.885694 -0.067952 -0.308858
									CHANNELS 3 Zrotation Yrotation Xrotation
									JOINT RightHandRing2
									{
										OFFSET -5.854198 -0.486132 -1.373732
										CHANNELS 3 Zrotation Yrotation Xrotation
										JOINT RightHandRing3
										{
											OFFSET -4.338814 -0.000003 -0.000000
											CHANNELS 3 Zrotation Yrotation Xrotation
											JOINT RightHandRing4
											{
												OFFSET -2.654905 -0.000004 0.000004
												CHANNELS 3 Zrotation Yrotation Xrotation
												JOINT RightHandRingEnd
												{
													OFFSET -1.933570 0.077524 -0.000053
													CHANNELS 3 Zrotation Yrotation Xrotation
													End Site
													{
														OFFSET 0.000000 0.000000 0.000000
													}
												}
											}
										}
									}
								}
								JOINT RightHandPinky1
								{
									OFFSET -2.866430 -0.342798 -1.584145
									CHANNELS 3 Zrotation Yrotation Xrotation
									JOINT RightHandPinky2
									{
										OFFSET -5.091369 -1.332054 -1.772385
										CHANNELS 3 Zrotation Yrotation Xrotation
										JOINT RightHandPinky3
										{
											OFFSET -3.062666 -0.000007 0.000000
											CHANNELS 3 Zrotation Yrotation Xrotation
											JOINT RightHandPinky4
											{
												OFFSET -1.546527 0.000006 -0.000002
												CHANNELS 3 Zrotation Yrotation Xrotation
												JOINT RightHandPinkyEnd
												{
													OFFSET -1.945122 -0.157721 0.057211
													CHANNELS 3 Zrotation Yrotation Xrotation
													End Site
													{
														OFFSET 0.000000 0.000000 0.000000
													}
												}
											}
										}
									}
								}
							}
						}
					}
				}
			}
		}
	}
	JOINT LeftLeg
	{
		OFFSET 10.043214 -8.434526 2.595655
		CHANNELS 3 Zrotation Yrotation Xrotation
		JOINT LeftShin
		{
			OFFSET -0.000002 -43.221752 -0.802913
			CHANNELS 3 Zrotation Yrotation Xrotation
			JOINT LeftFoot
			{
				OFFSET 0.000001 -42.155094 -3.481523
				CHANNELS 3 Zrotation Yrotation Xrotation
				JOINT LeftToeBase
				{
					OFFSET -0.000001 -5.059475 13.231529
					CHANNELS 3 Zrotation Yrotation Xrotation
					JOINT LeftToeEnd
					{
						OFFSET -0.009607 -1.647615 6.513017
						CHANNELS 3 Zrotation Yrotation Xrotation
						End Site
						{
							OFFSET 0.000000 0.000000 0.000000
						}
					}
				}
			}
		}
	}
	JOINT RightLeg
	{
		OFFSET -10.047277 -8.295259 2.620317
		CHANNELS 3 Zrotation Yrotation Xrotation
		JOINT RightShin
		{
			OFFSET 0.000001 -43.362209 -0.805556
			CHANNELS 3 Zrotation Yrotation Xrotation
			JOINT RightFoot
			{
				OFFSET 0.000002 -42.117393 -3.478399
				CHANNELS 3 Zrotation Yrotation Xrotation
				JOINT RightToeBase
				{
					OFFSET -0.000001 -5.079609 13.284196
					CHANNELS 3 Zrotation Yrotation Xrotation
					JOINT RightToeEnd
					{
						OFFSET 0.009532 -1.634383 6.460591
						CHANNELS 3 Zrotation Yrotation Xrotation
						End Site
						{
							OFFSET 0.000000 0.000000 0.000000
						}
					}
				}
			}
		}
	}
}
MOTION
Frames: 4
Frame Time: 0.033333
-2.627024 95.913086 -2.629382 -0.922202 -9.311895 2.746934 1.368715 0.576504 -1.169432 -0.314983 0.922412 -5.066313 -0.803365 -0.538060 11.099319 -2.756721 4.396533 16.262100 0.798361 5.815669 -3.513640 -2.817978 6.449856 -5.484436 0.000077 -0.000022 0.000005 0.028140 -0.061784 -0.011262 0.732165 -3.814232 -10.678524 -0.681814 3.680061 -10.673116 -5.588194 -11.646276 9.217443 -16.914251 -34.435131 -50.275803 178.370178 -65.414337 -179.609680 25.548105 -3.543719 -23.886787 -5.882101 9.861278 0.702590 -10.936858 -0.360576 7.156197 0.000002 8.774813 -0.000001 -16.153681 18.208521 6.618779 -1.844031 2.498502 -2.507276 -10.163589 4.678940 4.621104 -20.975996 -0.000003 0.000001 -21.226254 2.451691 -3.593994 -0.000001 -0.000006 0.000000 -1.362680 2.240796 -0.746323 -21.334887 0.584908 3.008320 -13.821197 -0.000002 0.000002 -23.887133 -0.249078 -0.839482 -60.508873 2.801218 -1.215117 -0.294025 1.679687 0.833255 -14.218194 0.093215 1.300579 -34.212013 -0.287564 0.967170 -20.033180 0.964535 1.212842 -0.000001 -0.000000 0.000000 -3.440386 0.788234 0.501655 -15.928169 -3.167306 2.999703 -6.338817 -0.000001 0.000001 -18.123415 3.648176 -4.905662 -0.000005 -0.000000 -0.000002 -13.209425 17.358507 2.703116 70.016022 42.139545 -0.497818 -179.672440 35.766659 -179.498642 -7.533747 4.164127 -29.026834 2.243540 -5.255033 -3.180156 14.282878 -0.826597 6.952497 0.000000 -12.690591 -0.000000 15.773394 -17.820950 2.780932 1.665665 -1.955920 -2.878297 4.727793 -4.170583 4.993919 11.020513 0.000003 -0.000001 12.109035 -3.735713 -2.866777 0.000000 -0.000001 -0.000000 1.291984 -1.928547 -1.498087 14.800113 0.567464 3.865603 14.242553 -1.341736 -6.660648 19.631939 0.143924 -0.648246 49.756840 -0.718579 -6.102587 0.353029 -1.511149 -0.031942 20.222769 3.684302 2.316627 18.787245 0.000003 -0.000002 10.751609 -0.479868 1.397904 0.000000 -0.000000 0.000001 3.273804 0.305947 -0.580110 21.486788 11.830359 2.266129 8.162915 0.000000 -0.000002 18.399054 -3.798983 -4.940568 0.000002 -0.000001 -0.000000 16.486935 6.737344 -18.440397 -0.093911 -0.576839 26.200428 -15.983556 4.694458 -5.360767 1.667558 -1.888580 0.190111 -0.000000 0.000000 0.000002 -9.527122 -8.110770 -10.203819 0.206021 0.615257 28.759459 11.560106 5.157903 -16.823132 -1.453794 0.923963 -0.815788 0.000000 0.000000 -0.000001 
-2.640232 95.941826 -2.642363 -0.735511 -9.204033 2.795272 1.435757 0.581019 -1.281480 -0.268963 0.906626 -5.086864 -0.802510 -0.634384 11.132173 -2.968348 4.510696 16.125673 0.797523 5.810432 -3.489021 -2.839868 6.531702 -5.529643 0.000077 -0.000022 0.000006 0.024030 -0.049655 -0.007617 0.728131 -3.794302 -10.651908 -0.688225 3.689204 -10.644598 -5.780282 -11.849533 9.198298 -17.176573 -34.358761 -50.265450 178.407547 -65.443222 -179.519119 25.577438 -3.747513 -23.871655 -5.882100 9.861278 0.702590 -10.936858 -0.360575 7.156197 0.000001 8.774814 -0.000002 -16.194187 18.242338 6.625622 -1.844031 2.498503 -2.507276 -10.163589 4.678940 4.621104 -20.975996 -0.000004 0.000003 -21.226255 2.451692 -3.593994 -0.000001 -0.000005 -0.000001 -1.362680 2.240796 -0.746322 -21.334887 0.584907 3.008321 -13.821197 -0.000003 0.000003 -23.887131 -0.249078 -0.839480 -60.478325 2.817574 -1.195529 -0.294024 1.679686 0.833255 -14.218190 0.093214 1.300580 -34.211998 -0.287564 0.967171 -20.033178 0.964535 1.212843 -0.000000 0.000000 0.000000 -3.440386 0.788233 0.501655 -15.928167 -3.167307 2.999704 -6.338817 -0.000002 0.000001 -18.123415 3.648176 -4.905660 -0.000005 0.000000 -0.000002 -13.114754 17.332005 2.737594 70.303871 41.977554 0.067500 -179.553497 35.565102 -179.434357 -7.816415 4.030712 -29.129747 2.243540 -5.255032 -3.180156 14.282877 -0.826593 6.952496 -0.000001 -12.690593 -0.000001 15.789071 -17.847919 2.780349 1.665664 -1.955920 -2.878297 4.727793 -4.170582 4.993916 11.020513 0.000002 -0.000001 12.109031 -3.735710 -2.866779 0.000000 0.000000 0.000000 1.291986 -1.928547 -1.498088 14.800111 0.567469 3.865603 14.242553 -1.341734 -6.660648 19.631941 0.143925 -0.648245 49.946278 -0.705201 -6.128621 0.353029 -1.511150 -0.031939 20.222771 3.684306 2.316629 18.787247 0.000005 -0.000002 10.751610 -0.479868 1.397903 0.000000 0.000001 0.000001 3.273805 0.305947 -0.580109 21.486788 11.830362 2.266128 8.162917 0.000001 -0.000002 18.399054 -3.798980 -4.940570 0.000002 -0.000001 -0.000002 16.260551 7.019106 -18.511951 -0.096552 -0.594501 26.058992 -16.032536 4.419720 -5.059926 1.666572 -1.880112 0.243583 -0.000000 0.000000 0.000002 -9.648890 -7.742854 -10.302752 0.202140 0.614029 28.824646 11.504121 4.871026 -16.918959 -1.453261 0.946608 -0.810436 0.000000 0.000000 -0.000001 
-2.633927 95.999657 -2.642038 -0.555742 -9.080883 2.874891 1.482895 0.603938 -1.351980 -0.233678 0.899382 -5.082707 -0.795989 -0.736188 11.108080 -3.157680 4.620113 15.925022 0.782493 5.764582 -3.503783 -2.814016 6.565388 -5.561278 0.000077 -0.000022 0.000006 0.021171 -0.048632 -0.024649 0.729285 -3.787554 -10.655987 -0.693164 3.688083 -10.642082 -5.847596 -12.024977 9.127813 -17.320154 -34.220066 -50.355839 178.590332 -65.474503 -179.645569 25.536018 -3.942697 -23.844536 -5.882100 9.861280 0.702590 -10.936859 -0.360575 7.156198 0.000001 8.774815 -0.000001 -16.224321 18.295729 6.616095 -1.844031 2.498502 -2.507276 -10.163589 4.678941 4.621105 -20.975992 -0.000005 0.000003 -21.226250 2.451692 -3.593993 0.000000 -0.000006 -0.000000 -1.362680 2.240797 -0.746323 -21.334888 0.584907 3.008321 -13.821197 -0.000003 0.000003 -23.887135 -0.249079 -0.839479 -60.481384 2.825162 -1.181112 -0.294024 1.679686 0.833256 -14.218194 0.093214 1.300579 -34.211998 -0.287565 0.967172 -20.033180 0.964535 1.212843 -0.000001 0.000000 0.000000 -3.440385 0.788233 0.501655 -15.928167 -3.167308 2.999705 -6.338817 -0.000002 0.000002 -18.123415 3.648176 -4.905661 -0.000006 0.000000 -0.000002 -13.129223 17.329041 2.784090 70.537064 41.850658 0.485913 -179.487259 35.471577 -179.400452 -8.086952 3.864556 -29.412134 2.243539 -5.255032 -3.180153 14.282873 -0.826594 6.952496 -0.000002 -12.690593 0.000002 15.816917 -17.912634 2.815042 1.665665 -1.955919 -2.878297 4.727792 -4.170583 4.993920 11.020512 0.000004 -0.000001 12.109033 -3.735707 -2.866780 0.000000 0.000000 0.000000 1.291985 -1.928547 -1.498089 14.800111 0.567469 3.865604 14.242553 -1.341735 -6.660646 19.631937 0.143928 -0.648242 50.085037 -0.695566 -6.134563 0.353029 -1.511149 -0.031941 20.222769 3.684310 2.316627 18.787249 0.000006 -0.000001 10.751611 -0.479869 1.397904 0.000000 0.000001 -0.000002 3.273804 0.305947 -0.580110 21.486794 11.830365 2.266132 8.162916 0.000001 -0.000001 18.399054 -3.798980 -4.940567 0.000002 -0.000001 -0.000002 16.022200 7.168790 -18.574869 -0.105656 -0.603107 25.833286 -16.033525 4.236576 -4.742882 1.667561 -1.866556 0.228042 -0.000000 -0.000000 0.000002 -9.779986 -7.451385 -10.373448 0.196004 0.612677 28.788033 11.491962 4.663966 -16.894489 -1.454802 0.959635 -0.890078 -0.000000 -0.000000 -0.000001 
-2.582743 96.045532 -2.646754 -0.402198 -8.917737 2.952026 1.512896 0.629161 -1.381416 -0.205923 0.886487 -5.086563 -0.794275 -0.793850 11.085542 -3.322253 4.717227 15.708403 0.763483 5.727335 -3.511031 -2.770673 6.560077 -5.594705 0.000077 -0.000022 0.000006 0.024760 -0.072689 -0.024524 0.733133 -3.810024 -10.661760 -0.689146 3.658879 -10.643112 -5.836563 -12.215782 9.071656 -17.265528 -34.008900 -50.551163 178.703934 -65.607216 -179.756424 25.453844 -4.089332 -23.963816 -5.882100 9.861278 0.702590 -10.936858 -0.360574 7.156197 0.000000 8.774814 -0.000002 -16.273966 18.306152 6.596375 -1.844031 2.498502 -2.507276 -10.163589 4.678940 4.621105 -20.975996 -0.000002 0.000002 -21.226255 2.451693 -3.593994 -0.000000 -0.000006 0.000001 -1.362680 2.240797 -0.746323 -21.334892 0.584909 3.008322 -13.821197 -0.000002 0.000003 -23.887129 -0.249077 -0.839481 -60.537426 2.818864 -1.167974 -0.294025 1.679686 0.833255 -14.218192 0.093216 1.300580 -34.212002 -0.287561 0.967170 -20.033175 0.964536 1.212841 -0.000000 0.000000 0.000000 -3.440385 0.788232 0.501655 -15.928169 -3.167305 2.999705 -6.338815 -0.000001 0.000001 -18.123413 3.648176 -4.905661 -0.000006 0.000000 -0.000002 -13.222139 17.336189 2.775594 70.687019 41.804871 0.660136 -179.407196 35.488991 -179.370453 -8.342713 3.652722 -29.805489 2.243540 -5.255033 -3.180156 14.282875 -0.826592 6.952496 -0.000001 -12.690592 -0.000001 15.853386 -17.954920 2.863163 1.665666 -1.955920 -2.878296 4.727793 -4.170582 4.993918 11.020513 0.000003 -0.000001 12.109030 -3.735709 -2.866780 0.000000 0.000001 -0.000001 1.291983 -1.928548 -1.498089 14.800114 0.567467 3.865603 14.242553 -1.341735 -6.660647 19.631939 0.143927 -0.648242 50.050484 -0.720466 -6.140980 0.353029 -1.511149 -0.031940 20.222769 3.684305 2.316629 18.787247 0.000004 -0.000002 10.751610 -0.479867 1.397904 0.000000 0.000003 0.000000 3.273804 0.305946 -0.580109 21.486790 11.830360 2.266132 8.162915 0.000001 -0.000001 18.399057 -3.798978 -4.940567 0.000002 -0.000002 -0.000001 15.796554 7.253785 -18.701696 -0.099346 -0.586880 25.695898 -16.003872 4.045577 -4.470890 1.665623 -1.867751 0.196069 -0.000000 -0.000000 0.000002 -9.914132 -7.220367 -10.419044 0.192248 0.625192 28.723225 11.503622 4.472859 -16.875246 -1.455030 0.946216 -0.969351 -0.000000 -0.000000 -0.000001 
